%FSLAX46Y46*%
G04 Gerber Fmt 4.6, Leading zero omitted, Abs format (unit mm)*
G04 Created by KiCad (PCBNEW (2014-10-22 BZR 5214)-product) date Son 07 Dez 2014 11:41:12 CET*
%MOMM*%
G01*
G04 APERTURE LIST*
%ADD10C,0.150000*%
%ADD11C,0.300000*%
G04 APERTURE END LIST*
D10*
D11*
X34115572Y-29626786D02*
X34044143Y-29555357D01*
X33829857Y-29483929D01*
X33687000Y-29483929D01*
X33472715Y-29555357D01*
X33329857Y-29698214D01*
X33258429Y-29841071D01*
X33187000Y-30126786D01*
X33187000Y-30341071D01*
X33258429Y-30626786D01*
X33329857Y-30769643D01*
X33472715Y-30912500D01*
X33687000Y-30983929D01*
X33829857Y-30983929D01*
X34044143Y-30912500D01*
X34115572Y-30841071D01*
X34687000Y-29912500D02*
X35401286Y-29912500D01*
X34544143Y-29483929D02*
X35044143Y-30983929D01*
X35544143Y-29483929D01*
X36044143Y-29483929D02*
X36044143Y-30983929D01*
X36901286Y-29483929D01*
X36901286Y-30983929D01*
X38329858Y-29483929D02*
X37615572Y-29483929D01*
X37615572Y-30983929D01*
X34127500Y-27023286D02*
X34056071Y-26951857D01*
X33841785Y-26880429D01*
X33698928Y-26880429D01*
X33484643Y-26951857D01*
X33341785Y-27094714D01*
X33270357Y-27237571D01*
X33198928Y-27523286D01*
X33198928Y-27737571D01*
X33270357Y-28023286D01*
X33341785Y-28166143D01*
X33484643Y-28309000D01*
X33698928Y-28380429D01*
X33841785Y-28380429D01*
X34056071Y-28309000D01*
X34127500Y-28237571D01*
X34698928Y-27309000D02*
X35413214Y-27309000D01*
X34556071Y-26880429D02*
X35056071Y-28380429D01*
X35556071Y-26880429D01*
X36056071Y-26880429D02*
X36056071Y-28380429D01*
X36913214Y-26880429D01*
X36913214Y-28380429D01*
X37627500Y-26880429D02*
X37627500Y-28380429D01*
X37627500Y-27666143D02*
X38484643Y-27666143D01*
X38484643Y-26880429D02*
X38484643Y-28380429D01*
X24896001Y-30880929D02*
X24396001Y-31595214D01*
X24038858Y-30880929D02*
X24038858Y-32380929D01*
X24610286Y-32380929D01*
X24753144Y-32309500D01*
X24824572Y-32238071D01*
X24896001Y-32095214D01*
X24896001Y-31880929D01*
X24824572Y-31738071D01*
X24753144Y-31666643D01*
X24610286Y-31595214D01*
X24038858Y-31595214D01*
X25396001Y-32380929D02*
X26396001Y-30880929D01*
X26396001Y-32380929D02*
X25396001Y-30880929D01*
X24066643Y-29713929D02*
X24923786Y-29713929D01*
X24495215Y-28213929D02*
X24495215Y-29713929D01*
X25280929Y-29713929D02*
X26280929Y-28213929D01*
X26280929Y-29713929D02*
X25280929Y-28213929D01*
X24828643Y-27166000D02*
X24685786Y-27237429D01*
X24471500Y-27237429D01*
X24257215Y-27166000D01*
X24114357Y-27023143D01*
X24042929Y-26880286D01*
X23971500Y-26594571D01*
X23971500Y-26380286D01*
X24042929Y-26094571D01*
X24114357Y-25951714D01*
X24257215Y-25808857D01*
X24471500Y-25737429D01*
X24614357Y-25737429D01*
X24828643Y-25808857D01*
X24900072Y-25880286D01*
X24900072Y-26380286D01*
X24614357Y-26380286D01*
X25542929Y-25737429D02*
X25542929Y-27237429D01*
X26400072Y-25737429D01*
X26400072Y-27237429D01*
X27114358Y-25737429D02*
X27114358Y-27237429D01*
X27471501Y-27237429D01*
X27685786Y-27166000D01*
X27828644Y-27023143D01*
X27900072Y-26880286D01*
X27971501Y-26594571D01*
X27971501Y-26380286D01*
X27900072Y-26094571D01*
X27828644Y-25951714D01*
X27685786Y-25808857D01*
X27471501Y-25737429D01*
X27114358Y-25737429D01*
X24025458Y-24697429D02*
X24954029Y-24697429D01*
X24454029Y-24126000D01*
X24668315Y-24126000D01*
X24811172Y-24054571D01*
X24882601Y-23983143D01*
X24954029Y-23840286D01*
X24954029Y-23483143D01*
X24882601Y-23340286D01*
X24811172Y-23268857D01*
X24668315Y-23197429D01*
X24239743Y-23197429D01*
X24096886Y-23268857D01*
X24025458Y-23340286D01*
X25382600Y-24697429D02*
X25882600Y-23197429D01*
X26382600Y-24697429D01*
X26739743Y-24697429D02*
X27668314Y-24697429D01*
X27168314Y-24126000D01*
X27382600Y-24126000D01*
X27525457Y-24054571D01*
X27596886Y-23983143D01*
X27668314Y-23840286D01*
X27668314Y-23483143D01*
X27596886Y-23340286D01*
X27525457Y-23268857D01*
X27382600Y-23197429D01*
X26954028Y-23197429D01*
X26811171Y-23268857D01*
X26739743Y-23340286D01*
X24860287Y-22157429D02*
X24146001Y-22157429D01*
X24074572Y-21443143D01*
X24146001Y-21514571D01*
X24288858Y-21586000D01*
X24646001Y-21586000D01*
X24788858Y-21514571D01*
X24860287Y-21443143D01*
X24931715Y-21300286D01*
X24931715Y-20943143D01*
X24860287Y-20800286D01*
X24788858Y-20728857D01*
X24646001Y-20657429D01*
X24288858Y-20657429D01*
X24146001Y-20728857D01*
X24074572Y-20800286D01*
X25360286Y-22157429D02*
X25860286Y-20657429D01*
X26360286Y-22157429D01*
M02*
