%FSLAX46Y46*%
G04 Gerber Fmt 4.6, Leading zero omitted, Abs format (unit mm)*
G04 Created by KiCad (PCBNEW (2014-10-22 BZR 5214)-product) date Son 07 Dez 2014 11:41:12 CET*
%MOMM*%
G01*
G04 APERTURE LIST*
%ADD10C,0.150000*%
%ADD11R,1.600000X0.800000*%
%ADD12R,3.000000X2.100000*%
%ADD13R,1.000000X0.650000*%
%ADD14R,1.000000X0.450000*%
%ADD15R,2.000000X1.000000*%
%ADD16R,1.524000X1.524000*%
%ADD17C,1.524000*%
%ADD18C,0.355600*%
%ADD19C,0.500000*%
%ADD20C,0.330200*%
%ADD21C,0.304800*%
G04 APERTURE END LIST*
D10*
D11*
X35100000Y-24625000D03*
X35100000Y-25875000D03*
X35100000Y-27125000D03*
X35100000Y-28375000D03*
D12*
X38000000Y-30925000D03*
X38000000Y-22075000D03*
D13*
X28400000Y-25850000D03*
X28400000Y-27350000D03*
D14*
X28300000Y-29000000D03*
X28300000Y-29650000D03*
X28300000Y-30300000D03*
X28300000Y-30950000D03*
X25700000Y-30950000D03*
X25700000Y-30300000D03*
X25700000Y-29650000D03*
X25700000Y-29000000D03*
D15*
X27400000Y-22700000D03*
X27400000Y-21430000D03*
X27400000Y-23970000D03*
D16*
X22400000Y-21420000D03*
D17*
X22400000Y-23960000D03*
X22400000Y-26500000D03*
X22400000Y-29040000D03*
X22400000Y-31580000D03*
D16*
X31600000Y-27730000D03*
D17*
X31600000Y-30270000D03*
D18*
X27390000Y-23960000D02*
X27400000Y-23970000D01*
X21800000Y-30300000D02*
X20900000Y-29400000D01*
X20900000Y-29400000D02*
X20900000Y-25460000D01*
X20900000Y-25460000D02*
X22400000Y-23960000D01*
X25700000Y-30300000D02*
X21800000Y-30300000D01*
D19*
X27390000Y-23960000D02*
X27400000Y-23970000D01*
X22400000Y-23960000D02*
X27390000Y-23960000D01*
D20*
X27390000Y-21420000D02*
X27400000Y-21430000D01*
D19*
X27390000Y-21420000D02*
X27400000Y-21430000D01*
X22400000Y-21420000D02*
X27390000Y-21420000D01*
D20*
X24450000Y-30950000D02*
X23820000Y-31580000D01*
X23820000Y-31580000D02*
X22400000Y-31580000D01*
X25700000Y-30950000D02*
X24450000Y-30950000D01*
X22440000Y-29000000D02*
X22400000Y-29040000D01*
X25700000Y-29000000D02*
X22440000Y-29000000D01*
D18*
X38000000Y-25900000D02*
X38000000Y-30925000D01*
X38000000Y-22075000D02*
X38000000Y-25900000D01*
X38000000Y-25875000D02*
X38000000Y-25900000D01*
X35100000Y-25875000D02*
X38000000Y-25875000D01*
X27000000Y-29650000D02*
X27000000Y-29800000D01*
X25700000Y-29650000D02*
X27000000Y-29650000D01*
X22400000Y-26500000D02*
X25100000Y-26500000D01*
X25100000Y-26500000D02*
X25150000Y-26550000D01*
X25950000Y-27350000D02*
X26250000Y-27650000D01*
X25150000Y-26550000D02*
X25650000Y-27050000D01*
X25650000Y-27050000D02*
X25950000Y-27350000D01*
X27000000Y-28400000D02*
X27000000Y-29600000D01*
X26250000Y-27650000D02*
X27000000Y-28400000D01*
X27000000Y-30700000D02*
X27250000Y-30950000D01*
X27000000Y-29600000D02*
X27000000Y-30700000D01*
X28300000Y-30896902D02*
X28300000Y-30950000D01*
X28246902Y-30950000D02*
X28300000Y-30896902D01*
X27250000Y-30950000D02*
X28246902Y-30950000D01*
X35100000Y-25875000D02*
X35075000Y-25850000D01*
X25850000Y-25850000D02*
X25150000Y-26550000D01*
D19*
X25200000Y-26500000D02*
X25850000Y-25850000D01*
X22400000Y-26500000D02*
X25200000Y-26500000D01*
X25850000Y-25850000D02*
X28400000Y-25850000D01*
X35075000Y-25850000D02*
X35100000Y-25875000D01*
X28400000Y-25850000D02*
X35075000Y-25850000D01*
X38003500Y-22078500D02*
X38000000Y-22075000D01*
X38003500Y-30921500D02*
X38003500Y-22078500D01*
X38003500Y-25875000D02*
X38003500Y-30921500D01*
X35100000Y-25875000D02*
X38003500Y-25875000D01*
D20*
X33175000Y-22700000D02*
X35100000Y-24625000D01*
D19*
X33175000Y-22700000D02*
X35100000Y-24625000D01*
X27400000Y-22700000D02*
X33175000Y-22700000D01*
D20*
X32205000Y-27125000D02*
X35100000Y-27125000D01*
X31600000Y-27730000D02*
X32205000Y-27125000D01*
X29750000Y-29650000D02*
X31600000Y-27800000D01*
X31600000Y-27800000D02*
X31600000Y-27730000D01*
X28300000Y-29650000D02*
X29750000Y-29650000D01*
D21*
X35075000Y-28400000D02*
X35100000Y-28375000D01*
D20*
X31570000Y-30300000D02*
X31600000Y-30270000D01*
X28300000Y-30300000D02*
X31570000Y-30300000D01*
X32130000Y-30270000D02*
X34025000Y-28375000D01*
X34025000Y-28375000D02*
X35100000Y-28375000D01*
X31600000Y-30270000D02*
X32130000Y-30270000D01*
X28400000Y-28900000D02*
X28300000Y-29000000D01*
X28400000Y-27350000D02*
X28400000Y-28900000D01*
M02*
